# xmcd
#
# Track frame offsets: 
#        150
#        12300
#        27786
#        43110
#        56084
#        65669
#        75687
#        95487
#        114038
#        129432
#        142868
#        153703
#        179125
#
# Disc length: 2415 seconds
#
# Revision: 0
# Processed by: cddbd v1.5.2PL0 Copyright (c) Steve Scherf et al.
# Submitted via: ExactAudioCopyFreeDBPlugin 1.0
#
DISCID=ad096d0d
DTITLE=Willie Dixon - Memphis Slim and Willie Dixon at the Village Gate
DYEAR=1962
DGENRE=Blues
TTITLE0=Crazy for My Baby
TTITLE1=My Baby Don't Stand No Cheating
TTITLE2=Stewball
TTITLE3=Slop Boogie
TTITLE4=Misery Falls Like Rain
TTITLE5=Wish Me Well
TTITLE6=Blue Yodel #1 (T for Texas)
TTITLE7=Have You Ever Been to Nashville?
TTITLE8=I'll Try to Find My Baby
TTITLE9=One More Time
TTITLE10=Nobody Loves Me
TTITLE11=We're Gonna Rock
TTITLE12=data
EXTD=
EXTT0=
EXTT1=
EXTT2=
EXTT3=
EXTT4=
EXTT5=
EXTT6=
EXTT7=
EXTT8=
EXTT9=
EXTT10=
EXTT11=
EXTT12=
PLAYORDER=
